<mxfile host="Electron" agent="Mozilla/5.0 (Macintosh; Intel Mac OS X 10_15_7) AppleWebKit/537.36 (KHTML, like Gecko) draw.io/24.7.17 Chrome/128.0.6613.36 Electron/32.0.1 Safari/537.36" version="24.7.17">
  <diagram name="Page-1" id="ifslNYAoz_acobLtJExe">
    <mxGraphModel dx="2868" dy="3094" grid="1" gridSize="10" guides="1" tooltips="1" connect="1" arrows="1" fold="1" page="1" pageScale="1" pageWidth="1920" pageHeight="1200" math="0" shadow="0">
      <root>
        <mxCell id="0" />
        <mxCell id="1" parent="0" />
        <mxCell id="qfG-5sboeh_dWvt4FY1i-1" value="main_lobby" style="whiteSpace=wrap;html=1;aspect=fixed;" parent="1" vertex="1">
          <mxGeometry x="400" y="320" width="80" height="80" as="geometry" />
        </mxCell>
        <mxCell id="qfG-5sboeh_dWvt4FY1i-2" value="main_&lt;div&gt;elevator_m&lt;/div&gt;" style="whiteSpace=wrap;html=1;aspect=fixed;" parent="1" vertex="1">
          <mxGeometry x="560" y="160" width="80" height="80" as="geometry" />
        </mxCell>
        <mxCell id="qfG-5sboeh_dWvt4FY1i-8" value="security_office" style="whiteSpace=wrap;html=1;aspect=fixed;" parent="1" vertex="1">
          <mxGeometry x="240" y="320" width="80" height="80" as="geometry" />
        </mxCell>
        <mxCell id="qfG-5sboeh_dWvt4FY1i-12" value="elevator_&lt;div&gt;lobby_m&lt;/div&gt;" style="whiteSpace=wrap;html=1;aspect=fixed;" parent="1" vertex="1">
          <mxGeometry x="560" width="80" height="80" as="geometry" />
        </mxCell>
        <mxCell id="qfG-5sboeh_dWvt4FY1i-13" value="" style="endArrow=classic;startArrow=classic;html=1;rounded=0;exitX=0.5;exitY=0;exitDx=0;exitDy=0;entryX=0.5;entryY=1;entryDx=0;entryDy=0;" parent="1" source="qfG-5sboeh_dWvt4FY1i-2" target="qfG-5sboeh_dWvt4FY1i-12" edge="1">
          <mxGeometry width="50" height="50" relative="1" as="geometry">
            <mxPoint x="710" y="130" as="sourcePoint" />
            <mxPoint x="760" y="80" as="targetPoint" />
          </mxGeometry>
        </mxCell>
        <mxCell id="qfG-5sboeh_dWvt4FY1i-14" value="" style="endArrow=classic;startArrow=classic;html=1;rounded=0;entryX=0;entryY=0.5;entryDx=0;entryDy=0;exitX=1;exitY=0.5;exitDx=0;exitDy=0;" parent="1" target="qfG-5sboeh_dWvt4FY1i-12" edge="1">
          <mxGeometry width="50" height="50" relative="1" as="geometry">
            <mxPoint x="480" y="40" as="sourcePoint" />
            <mxPoint x="530" y="100" as="targetPoint" />
          </mxGeometry>
        </mxCell>
        <mxCell id="qfG-5sboeh_dWvt4FY1i-15" value="hallway_m1" style="whiteSpace=wrap;html=1;aspect=fixed;" parent="1" vertex="1">
          <mxGeometry x="400" width="80" height="80" as="geometry" />
        </mxCell>
        <mxCell id="qfG-5sboeh_dWvt4FY1i-16" value="admin_&lt;div&gt;hallway&lt;/div&gt;" style="whiteSpace=wrap;html=1;aspect=fixed;" parent="1" vertex="1">
          <mxGeometry x="80" width="80" height="80" as="geometry" />
        </mxCell>
        <mxCell id="qfG-5sboeh_dWvt4FY1i-17" value="cafeteria" style="whiteSpace=wrap;html=1;aspect=fixed;" parent="1" vertex="1">
          <mxGeometry x="720" width="80" height="80" as="geometry" />
        </mxCell>
        <mxCell id="qfG-5sboeh_dWvt4FY1i-18" value="kitchen" style="whiteSpace=wrap;html=1;aspect=fixed;" parent="1" vertex="1">
          <mxGeometry x="720" y="-160" width="80" height="80" as="geometry" />
        </mxCell>
        <mxCell id="qfG-5sboeh_dWvt4FY1i-21" value="" style="endArrow=classic;startArrow=classic;html=1;rounded=0;exitX=1;exitY=0.5;exitDx=0;exitDy=0;entryX=0;entryY=0.5;entryDx=0;entryDy=0;" parent="1" source="qfG-5sboeh_dWvt4FY1i-12" target="qfG-5sboeh_dWvt4FY1i-17" edge="1">
          <mxGeometry width="50" height="50" relative="1" as="geometry">
            <mxPoint x="670" y="-40" as="sourcePoint" />
            <mxPoint x="720" y="-90" as="targetPoint" />
          </mxGeometry>
        </mxCell>
        <mxCell id="qfG-5sboeh_dWvt4FY1i-24" value="northrup_&lt;div&gt;office&lt;/div&gt;" style="whiteSpace=wrap;html=1;aspect=fixed;" parent="1" vertex="1">
          <mxGeometry x="80" y="160" width="80" height="80" as="geometry" />
        </mxCell>
        <mxCell id="qfG-5sboeh_dWvt4FY1i-27" value="jorry_office" style="whiteSpace=wrap;html=1;aspect=fixed;" parent="1" vertex="1">
          <mxGeometry x="80" y="-160" width="80" height="80" as="geometry" />
        </mxCell>
        <mxCell id="qfG-5sboeh_dWvt4FY1i-28" value="" style="endArrow=classic;startArrow=classic;html=1;rounded=0;entryX=0.5;entryY=1;entryDx=0;entryDy=0;exitX=0.5;exitY=0;exitDx=0;exitDy=0;" parent="1" source="qfG-5sboeh_dWvt4FY1i-16" target="qfG-5sboeh_dWvt4FY1i-27" edge="1">
          <mxGeometry width="50" height="50" relative="1" as="geometry">
            <mxPoint x="30" as="sourcePoint" />
            <mxPoint x="80" y="-50" as="targetPoint" />
          </mxGeometry>
        </mxCell>
        <mxCell id="qfG-5sboeh_dWvt4FY1i-29" value="stairwell_m" style="whiteSpace=wrap;html=1;aspect=fixed;" parent="1" vertex="1">
          <mxGeometry x="560" y="-160" width="80" height="80" as="geometry" />
        </mxCell>
        <mxCell id="qfG-5sboeh_dWvt4FY1i-30" value="" style="endArrow=classic;startArrow=classic;html=1;rounded=0;exitX=0.5;exitY=0;exitDx=0;exitDy=0;entryX=0.5;entryY=1;entryDx=0;entryDy=0;" parent="1" source="qfG-5sboeh_dWvt4FY1i-12" target="qfG-5sboeh_dWvt4FY1i-29" edge="1">
          <mxGeometry width="50" height="50" relative="1" as="geometry">
            <mxPoint x="650" y="-40" as="sourcePoint" />
            <mxPoint x="700" y="-90" as="targetPoint" />
          </mxGeometry>
        </mxCell>
        <mxCell id="qfG-5sboeh_dWvt4FY1i-31" value="&lt;font style=&quot;font-size: 24px;&quot;&gt;Main Level&lt;/font&gt;" style="text;html=1;align=center;verticalAlign=middle;resizable=0;points=[];autosize=1;strokeColor=none;fillColor=none;" parent="1" vertex="1">
          <mxGeometry x="-90" y="-200" width="140" height="40" as="geometry" />
        </mxCell>
        <mxCell id="tPwMybB11Bxk-xAltd_m-1" value="main_&lt;div&gt;elevator_b&lt;/div&gt;" style="whiteSpace=wrap;html=1;aspect=fixed;" parent="1" vertex="1">
          <mxGeometry x="560" y="-400" width="80" height="80" as="geometry" />
        </mxCell>
        <mxCell id="tPwMybB11Bxk-xAltd_m-2" value="elevator_&lt;div&gt;lobby_b&lt;/div&gt;" style="whiteSpace=wrap;html=1;aspect=fixed;" parent="1" vertex="1">
          <mxGeometry x="560" y="-560" width="80" height="80" as="geometry" />
        </mxCell>
        <mxCell id="tPwMybB11Bxk-xAltd_m-3" value="" style="endArrow=classic;startArrow=classic;html=1;rounded=0;exitX=0.5;exitY=0;exitDx=0;exitDy=0;entryX=0.5;entryY=1;entryDx=0;entryDy=0;" parent="1" source="tPwMybB11Bxk-xAltd_m-1" target="tPwMybB11Bxk-xAltd_m-2" edge="1">
          <mxGeometry width="50" height="50" relative="1" as="geometry">
            <mxPoint x="720" y="-390" as="sourcePoint" />
            <mxPoint x="770" y="-440" as="targetPoint" />
          </mxGeometry>
        </mxCell>
        <mxCell id="tPwMybB11Bxk-xAltd_m-4" value="basement_&lt;div&gt;hallway_&lt;/div&gt;&lt;div&gt;east&lt;/div&gt;" style="whiteSpace=wrap;html=1;aspect=fixed;" parent="1" vertex="1">
          <mxGeometry x="720" y="-560" width="80" height="80" as="geometry" />
        </mxCell>
        <mxCell id="tPwMybB11Bxk-xAltd_m-5" value="basement_&lt;div&gt;hallway_&lt;/div&gt;&lt;div&gt;west&lt;/div&gt;" style="whiteSpace=wrap;html=1;aspect=fixed;" parent="1" vertex="1">
          <mxGeometry x="400" y="-560" width="80" height="80" as="geometry" />
        </mxCell>
        <mxCell id="tPwMybB11Bxk-xAltd_m-6" value="service_&lt;div&gt;elevator_b&lt;/div&gt;" style="whiteSpace=wrap;html=1;aspect=fixed;" parent="1" vertex="1">
          <mxGeometry x="400" y="-720" width="80" height="80" as="geometry" />
        </mxCell>
        <mxCell id="tPwMybB11Bxk-xAltd_m-7" value="" style="endArrow=classic;startArrow=classic;html=1;rounded=0;exitX=1;exitY=0.5;exitDx=0;exitDy=0;entryX=0;entryY=0.5;entryDx=0;entryDy=0;" parent="1" source="tPwMybB11Bxk-xAltd_m-2" target="tPwMybB11Bxk-xAltd_m-4" edge="1">
          <mxGeometry width="50" height="50" relative="1" as="geometry">
            <mxPoint x="720" y="-590" as="sourcePoint" />
            <mxPoint x="770" y="-640" as="targetPoint" />
          </mxGeometry>
        </mxCell>
        <mxCell id="tPwMybB11Bxk-xAltd_m-8" value="" style="endArrow=classic;startArrow=classic;html=1;rounded=0;entryX=0;entryY=0.5;entryDx=0;entryDy=0;exitX=1;exitY=0.5;exitDx=0;exitDy=0;" parent="1" source="tPwMybB11Bxk-xAltd_m-5" target="tPwMybB11Bxk-xAltd_m-2" edge="1">
          <mxGeometry width="50" height="50" relative="1" as="geometry">
            <mxPoint x="470" y="-410" as="sourcePoint" />
            <mxPoint x="520" y="-460" as="targetPoint" />
          </mxGeometry>
        </mxCell>
        <mxCell id="tPwMybB11Bxk-xAltd_m-9" value="" style="endArrow=classic;startArrow=classic;html=1;rounded=0;entryX=0.5;entryY=1;entryDx=0;entryDy=0;exitX=0.5;exitY=0;exitDx=0;exitDy=0;" parent="1" source="tPwMybB11Bxk-xAltd_m-5" target="tPwMybB11Bxk-xAltd_m-6" edge="1">
          <mxGeometry width="50" height="50" relative="1" as="geometry">
            <mxPoint x="350" y="-550" as="sourcePoint" />
            <mxPoint x="400" y="-600" as="targetPoint" />
          </mxGeometry>
        </mxCell>
        <mxCell id="tPwMybB11Bxk-xAltd_m-12" value="hallway_b2" style="whiteSpace=wrap;html=1;aspect=fixed;" parent="1" vertex="1">
          <mxGeometry x="80" y="-560" width="80" height="80" as="geometry" />
        </mxCell>
        <mxCell id="tPwMybB11Bxk-xAltd_m-15" value="engineering" style="whiteSpace=wrap;html=1;aspect=fixed;" parent="1" vertex="1">
          <mxGeometry x="-80" y="-560" width="80" height="80" as="geometry" />
        </mxCell>
        <mxCell id="tPwMybB11Bxk-xAltd_m-17" value="stairwell_b" style="whiteSpace=wrap;html=1;aspect=fixed;" parent="1" vertex="1">
          <mxGeometry x="560" y="-720" width="80" height="80" as="geometry" />
        </mxCell>
        <mxCell id="tPwMybB11Bxk-xAltd_m-18" value="" style="endArrow=classic;startArrow=classic;html=1;rounded=0;exitX=0.5;exitY=0;exitDx=0;exitDy=0;entryX=0.5;entryY=1;entryDx=0;entryDy=0;" parent="1" source="tPwMybB11Bxk-xAltd_m-2" target="tPwMybB11Bxk-xAltd_m-17" edge="1">
          <mxGeometry width="50" height="50" relative="1" as="geometry">
            <mxPoint x="680" y="-590" as="sourcePoint" />
            <mxPoint x="730" y="-640" as="targetPoint" />
          </mxGeometry>
        </mxCell>
        <mxCell id="tPwMybB11Bxk-xAltd_m-19" value="hallway_m2" style="whiteSpace=wrap;html=1;aspect=fixed;" parent="1" vertex="1">
          <mxGeometry x="240" width="80" height="80" as="geometry" />
        </mxCell>
        <mxCell id="tPwMybB11Bxk-xAltd_m-20" value="" style="endArrow=classic;startArrow=classic;html=1;rounded=0;exitX=1;exitY=0.5;exitDx=0;exitDy=0;entryX=0;entryY=0.5;entryDx=0;entryDy=0;" parent="1" source="qfG-5sboeh_dWvt4FY1i-16" target="tPwMybB11Bxk-xAltd_m-19" edge="1">
          <mxGeometry width="50" height="50" relative="1" as="geometry">
            <mxPoint x="220" y="-110" as="sourcePoint" />
            <mxPoint x="270" y="-160" as="targetPoint" />
          </mxGeometry>
        </mxCell>
        <mxCell id="tPwMybB11Bxk-xAltd_m-21" value="" style="endArrow=classic;startArrow=classic;html=1;rounded=0;exitX=1;exitY=0.5;exitDx=0;exitDy=0;entryX=0;entryY=0.5;entryDx=0;entryDy=0;" parent="1" source="tPwMybB11Bxk-xAltd_m-19" target="qfG-5sboeh_dWvt4FY1i-15" edge="1">
          <mxGeometry width="50" height="50" relative="1" as="geometry">
            <mxPoint x="330" y="-230" as="sourcePoint" />
            <mxPoint x="380" y="-280" as="targetPoint" />
          </mxGeometry>
        </mxCell>
        <mxCell id="tPwMybB11Bxk-xAltd_m-23" value="hallway_b1" style="whiteSpace=wrap;html=1;aspect=fixed;" parent="1" vertex="1">
          <mxGeometry x="240" y="-560" width="80" height="80" as="geometry" />
        </mxCell>
        <mxCell id="tPwMybB11Bxk-xAltd_m-24" value="" style="endArrow=classic;startArrow=classic;html=1;rounded=0;entryX=0;entryY=0.5;entryDx=0;entryDy=0;exitX=1;exitY=0.5;exitDx=0;exitDy=0;" parent="1" source="tPwMybB11Bxk-xAltd_m-23" target="tPwMybB11Bxk-xAltd_m-5" edge="1">
          <mxGeometry width="50" height="50" relative="1" as="geometry">
            <mxPoint x="320" y="-380" as="sourcePoint" />
            <mxPoint x="370" y="-430" as="targetPoint" />
          </mxGeometry>
        </mxCell>
        <mxCell id="tPwMybB11Bxk-xAltd_m-25" value="" style="endArrow=classic;startArrow=classic;html=1;rounded=0;exitX=1;exitY=0.5;exitDx=0;exitDy=0;entryX=0;entryY=0.5;entryDx=0;entryDy=0;" parent="1" source="tPwMybB11Bxk-xAltd_m-12" target="tPwMybB11Bxk-xAltd_m-23" edge="1">
          <mxGeometry width="50" height="50" relative="1" as="geometry">
            <mxPoint x="210" y="-600" as="sourcePoint" />
            <mxPoint x="260" y="-650" as="targetPoint" />
          </mxGeometry>
        </mxCell>
        <mxCell id="tPwMybB11Bxk-xAltd_m-27" value="dumbwaiter_m" style="text;html=1;align=center;verticalAlign=middle;resizable=0;points=[];autosize=1;strokeColor=none;fillColor=none;" parent="1" vertex="1">
          <mxGeometry x="225" y="180" width="110" height="30" as="geometry" />
        </mxCell>
        <mxCell id="tPwMybB11Bxk-xAltd_m-29" value="dumbwaiter_b" style="text;html=1;align=center;verticalAlign=middle;resizable=0;points=[];autosize=1;strokeColor=none;fillColor=none;" parent="1" vertex="1">
          <mxGeometry x="225" y="-375" width="110" height="30" as="geometry" />
        </mxCell>
        <mxCell id="tPwMybB11Bxk-xAltd_m-30" value="morgue" style="whiteSpace=wrap;html=1;aspect=fixed;" parent="1" vertex="1">
          <mxGeometry x="880" y="-560" width="80" height="80" as="geometry" />
        </mxCell>
        <mxCell id="tPwMybB11Bxk-xAltd_m-31" value="" style="endArrow=classic;startArrow=classic;html=1;rounded=0;exitX=1;exitY=0.5;exitDx=0;exitDy=0;entryX=0;entryY=0.5;entryDx=0;entryDy=0;" parent="1" source="tPwMybB11Bxk-xAltd_m-4" target="tPwMybB11Bxk-xAltd_m-30" edge="1">
          <mxGeometry width="50" height="50" relative="1" as="geometry">
            <mxPoint x="890" y="-660" as="sourcePoint" />
            <mxPoint x="870" y="-520" as="targetPoint" />
          </mxGeometry>
        </mxCell>
        <mxCell id="tPwMybB11Bxk-xAltd_m-32" value="&lt;font style=&quot;font-size: 24px;&quot;&gt;Basement&lt;/font&gt;" style="text;html=1;align=center;verticalAlign=middle;resizable=0;points=[];autosize=1;strokeColor=none;fillColor=none;" parent="1" vertex="1">
          <mxGeometry x="-80" y="-640" width="130" height="40" as="geometry" />
        </mxCell>
        <mxCell id="tPwMybB11Bxk-xAltd_m-33" value="main_&lt;div&gt;elevator_2&lt;/div&gt;" style="whiteSpace=wrap;html=1;aspect=fixed;" parent="1" vertex="1">
          <mxGeometry x="560" y="960" width="80" height="80" as="geometry" />
        </mxCell>
        <mxCell id="tPwMybB11Bxk-xAltd_m-34" value="elevator_&lt;div&gt;lobby_2&lt;/div&gt;" style="whiteSpace=wrap;html=1;aspect=fixed;" parent="1" vertex="1">
          <mxGeometry x="560" y="800" width="80" height="80" as="geometry" />
        </mxCell>
        <mxCell id="tPwMybB11Bxk-xAltd_m-35" value="" style="endArrow=classic;startArrow=classic;html=1;rounded=0;exitX=0.5;exitY=0;exitDx=0;exitDy=0;entryX=0.5;entryY=1;entryDx=0;entryDy=0;" parent="1" source="tPwMybB11Bxk-xAltd_m-33" target="tPwMybB11Bxk-xAltd_m-34" edge="1">
          <mxGeometry width="50" height="50" relative="1" as="geometry">
            <mxPoint x="720" y="970" as="sourcePoint" />
            <mxPoint x="770" y="920" as="targetPoint" />
          </mxGeometry>
        </mxCell>
        <mxCell id="tPwMybB11Bxk-xAltd_m-36" value="stairwell_2" style="whiteSpace=wrap;html=1;aspect=fixed;" parent="1" vertex="1">
          <mxGeometry x="560" y="640" width="80" height="80" as="geometry" />
        </mxCell>
        <mxCell id="tPwMybB11Bxk-xAltd_m-37" value="" style="endArrow=classic;startArrow=classic;html=1;rounded=0;exitX=0.5;exitY=0;exitDx=0;exitDy=0;entryX=0.5;entryY=1;entryDx=0;entryDy=0;" parent="1" source="tPwMybB11Bxk-xAltd_m-34" target="tPwMybB11Bxk-xAltd_m-36" edge="1">
          <mxGeometry width="50" height="50" relative="1" as="geometry">
            <mxPoint x="680" y="770" as="sourcePoint" />
            <mxPoint x="730" y="720" as="targetPoint" />
          </mxGeometry>
        </mxCell>
        <mxCell id="tPwMybB11Bxk-xAltd_m-38" value="hallway_2_1" style="whiteSpace=wrap;html=1;aspect=fixed;" parent="1" vertex="1">
          <mxGeometry x="400" y="800" width="80" height="80" as="geometry" />
        </mxCell>
        <mxCell id="tPwMybB11Bxk-xAltd_m-39" value="service_&lt;div&gt;elevator_2&lt;/div&gt;" style="whiteSpace=wrap;html=1;aspect=fixed;" parent="1" vertex="1">
          <mxGeometry x="400" y="640" width="80" height="80" as="geometry" />
        </mxCell>
        <mxCell id="tPwMybB11Bxk-xAltd_m-40" value="" style="endArrow=classic;startArrow=classic;html=1;rounded=0;entryX=0;entryY=0.5;entryDx=0;entryDy=0;exitX=1;exitY=0.5;exitDx=0;exitDy=0;" parent="1" source="tPwMybB11Bxk-xAltd_m-38" target="tPwMybB11Bxk-xAltd_m-34" edge="1">
          <mxGeometry width="50" height="50" relative="1" as="geometry">
            <mxPoint x="450" y="970" as="sourcePoint" />
            <mxPoint x="500" y="920" as="targetPoint" />
          </mxGeometry>
        </mxCell>
        <mxCell id="tPwMybB11Bxk-xAltd_m-41" value="" style="endArrow=classic;startArrow=classic;html=1;rounded=0;entryX=0.5;entryY=1;entryDx=0;entryDy=0;exitX=0.5;exitY=0;exitDx=0;exitDy=0;" parent="1" source="tPwMybB11Bxk-xAltd_m-38" target="tPwMybB11Bxk-xAltd_m-39" edge="1">
          <mxGeometry width="50" height="50" relative="1" as="geometry">
            <mxPoint x="310" y="830" as="sourcePoint" />
            <mxPoint x="360" y="780" as="targetPoint" />
          </mxGeometry>
        </mxCell>
        <mxCell id="tPwMybB11Bxk-xAltd_m-42" value="hallway_2_2" style="whiteSpace=wrap;html=1;aspect=fixed;" parent="1" vertex="1">
          <mxGeometry x="240" y="800" width="80" height="80" as="geometry" />
        </mxCell>
        <mxCell id="tPwMybB11Bxk-xAltd_m-43" value="" style="endArrow=classic;startArrow=classic;html=1;rounded=0;exitX=1;exitY=0.5;exitDx=0;exitDy=0;entryX=0;entryY=0.5;entryDx=0;entryDy=0;" parent="1" source="tPwMybB11Bxk-xAltd_m-42" target="tPwMybB11Bxk-xAltd_m-38" edge="1">
          <mxGeometry width="50" height="50" relative="1" as="geometry">
            <mxPoint x="290" y="690" as="sourcePoint" />
            <mxPoint x="340" y="640" as="targetPoint" />
          </mxGeometry>
        </mxCell>
        <mxCell id="tPwMybB11Bxk-xAltd_m-44" value="dumbwaiter_2" style="text;html=1;align=center;verticalAlign=middle;resizable=0;points=[];autosize=1;strokeColor=none;fillColor=none;" parent="1" vertex="1">
          <mxGeometry x="225" y="970" width="110" height="30" as="geometry" />
        </mxCell>
        <mxCell id="tPwMybB11Bxk-xAltd_m-47" value="&lt;font style=&quot;font-size: 24px;&quot;&gt;Second Floor&lt;/font&gt;" style="text;html=1;align=center;verticalAlign=middle;resizable=0;points=[];autosize=1;strokeColor=none;fillColor=none;" parent="1" vertex="1">
          <mxGeometry x="-95" y="560" width="170" height="40" as="geometry" />
        </mxCell>
        <mxCell id="asU1JeA8CYxMuC0H8y0G-1" value="" style="endArrow=classic;html=1;rounded=0;exitX=0.5;exitY=1;exitDx=0;exitDy=0;" parent="1" source="tPwMybB11Bxk-xAltd_m-23" edge="1">
          <mxGeometry width="50" height="50" relative="1" as="geometry">
            <mxPoint x="300" y="-400" as="sourcePoint" />
            <mxPoint x="280" y="-390" as="targetPoint" />
          </mxGeometry>
        </mxCell>
        <mxCell id="asU1JeA8CYxMuC0H8y0G-2" value="" style="endArrow=classic;html=1;rounded=0;exitX=0.5;exitY=1;exitDx=0;exitDy=0;" parent="1" source="tPwMybB11Bxk-xAltd_m-19" edge="1">
          <mxGeometry width="50" height="50" relative="1" as="geometry">
            <mxPoint x="290" y="140" as="sourcePoint" />
            <mxPoint x="280" y="160" as="targetPoint" />
          </mxGeometry>
        </mxCell>
        <mxCell id="asU1JeA8CYxMuC0H8y0G-3" value="" style="endArrow=classic;html=1;rounded=0;exitX=0.5;exitY=1;exitDx=0;exitDy=0;" parent="1" source="tPwMybB11Bxk-xAltd_m-42" edge="1">
          <mxGeometry width="50" height="50" relative="1" as="geometry">
            <mxPoint x="330" y="950" as="sourcePoint" />
            <mxPoint x="280" y="960" as="targetPoint" />
          </mxGeometry>
        </mxCell>
        <mxCell id="asU1JeA8CYxMuC0H8y0G-6" value="sub_&lt;div&gt;basement_&lt;/div&gt;&lt;div&gt;01&lt;/div&gt;" style="whiteSpace=wrap;html=1;aspect=fixed;" parent="1" vertex="1">
          <mxGeometry x="240" y="-1120" width="80" height="80" as="geometry" />
        </mxCell>
        <mxCell id="asU1JeA8CYxMuC0H8y0G-11" value="central_supply" style="whiteSpace=wrap;html=1;aspect=fixed;" parent="1" vertex="1">
          <mxGeometry x="80" y="-400" width="80" height="80" as="geometry" />
        </mxCell>
        <mxCell id="asU1JeA8CYxMuC0H8y0G-12" value="sub_&lt;div&gt;basement_&lt;/div&gt;&lt;div&gt;02&lt;/div&gt;" style="whiteSpace=wrap;html=1;aspect=fixed;" parent="1" vertex="1">
          <mxGeometry x="400" y="-1120" width="80" height="80" as="geometry" />
        </mxCell>
        <mxCell id="asU1JeA8CYxMuC0H8y0G-14" value="service_&lt;div&gt;elevator_sub&lt;/div&gt;" style="whiteSpace=wrap;html=1;aspect=fixed;" parent="1" vertex="1">
          <mxGeometry x="400" y="-1280" width="80" height="80" as="geometry" />
        </mxCell>
        <mxCell id="asU1JeA8CYxMuC0H8y0G-15" value="" style="endArrow=classic;startArrow=classic;html=1;rounded=0;exitX=0.5;exitY=0;exitDx=0;exitDy=0;entryX=0.5;entryY=1;entryDx=0;entryDy=0;" parent="1" source="asU1JeA8CYxMuC0H8y0G-12" target="asU1JeA8CYxMuC0H8y0G-14" edge="1">
          <mxGeometry width="50" height="50" relative="1" as="geometry">
            <mxPoint x="490" y="-1140" as="sourcePoint" />
            <mxPoint x="540" y="-1190" as="targetPoint" />
          </mxGeometry>
        </mxCell>
        <mxCell id="asU1JeA8CYxMuC0H8y0G-20" value="&lt;font style=&quot;font-size: 24px;&quot;&gt;Sub-Basement&lt;/font&gt;" style="text;html=1;align=center;verticalAlign=middle;resizable=0;points=[];autosize=1;strokeColor=none;fillColor=none;" parent="1" vertex="1">
          <mxGeometry x="160" y="-1310" width="180" height="40" as="geometry" />
        </mxCell>
        <mxCell id="mr-Dp4IAB0k9WiGIZRGf-1" value="" style="endArrow=classic;startArrow=classic;html=1;rounded=0;exitX=1;exitY=0.5;exitDx=0;exitDy=0;entryX=0;entryY=0.5;entryDx=0;entryDy=0;" parent="1" source="tPwMybB11Bxk-xAltd_m-15" target="tPwMybB11Bxk-xAltd_m-12" edge="1">
          <mxGeometry width="50" height="50" relative="1" as="geometry">
            <mxPoint x="130" y="-670" as="sourcePoint" />
            <mxPoint x="180" y="-720" as="targetPoint" />
          </mxGeometry>
        </mxCell>
        <mxCell id="oefkJ1ysLZ4ZXrgewn-d-1" value="environmental&lt;div&gt;_services&lt;/div&gt;" style="whiteSpace=wrap;html=1;aspect=fixed;" parent="1" vertex="1">
          <mxGeometry x="80" y="-720" width="80" height="80" as="geometry" />
        </mxCell>
        <mxCell id="oefkJ1ysLZ4ZXrgewn-d-2" value="" style="endArrow=classic;startArrow=classic;html=1;rounded=0;exitX=0.5;exitY=0;exitDx=0;exitDy=0;entryX=0.5;entryY=1;entryDx=0;entryDy=0;" parent="1" source="tPwMybB11Bxk-xAltd_m-12" target="oefkJ1ysLZ4ZXrgewn-d-1" edge="1">
          <mxGeometry width="50" height="50" relative="1" as="geometry">
            <mxPoint x="210" y="-590" as="sourcePoint" />
            <mxPoint x="260" y="-640" as="targetPoint" />
          </mxGeometry>
        </mxCell>
        <mxCell id="m0VisecSbKJMhGRfjAx6-1" value="northrup_&lt;div&gt;anteroom&lt;/div&gt;" style="whiteSpace=wrap;html=1;aspect=fixed;" parent="1" vertex="1">
          <mxGeometry x="-80" width="80" height="80" as="geometry" />
        </mxCell>
        <mxCell id="m0VisecSbKJMhGRfjAx6-2" value="" style="endArrow=classic;startArrow=classic;html=1;rounded=0;exitX=1;exitY=0.5;exitDx=0;exitDy=0;entryX=0;entryY=0.5;entryDx=0;entryDy=0;" parent="1" source="m0VisecSbKJMhGRfjAx6-1" target="qfG-5sboeh_dWvt4FY1i-16" edge="1">
          <mxGeometry width="50" height="50" relative="1" as="geometry">
            <mxPoint y="-20" as="sourcePoint" />
            <mxPoint x="50" y="-70" as="targetPoint" />
          </mxGeometry>
        </mxCell>
        <mxCell id="Ro30wuysqxpOcJ6ZnLPi-1" value="hallway_2_3" style="whiteSpace=wrap;html=1;aspect=fixed;" parent="1" vertex="1">
          <mxGeometry x="720" y="800" width="80" height="80" as="geometry" />
        </mxCell>
        <mxCell id="Ro30wuysqxpOcJ6ZnLPi-2" value="" style="endArrow=classic;startArrow=classic;html=1;rounded=0;exitX=1;exitY=0.5;exitDx=0;exitDy=0;entryX=0;entryY=0.5;entryDx=0;entryDy=0;" parent="1" source="tPwMybB11Bxk-xAltd_m-34" target="Ro30wuysqxpOcJ6ZnLPi-1" edge="1">
          <mxGeometry width="50" height="50" relative="1" as="geometry">
            <mxPoint x="700" y="740" as="sourcePoint" />
            <mxPoint x="750" y="690" as="targetPoint" />
          </mxGeometry>
        </mxCell>
        <mxCell id="Ro30wuysqxpOcJ6ZnLPi-5" value="x_ray" style="whiteSpace=wrap;html=1;aspect=fixed;" parent="1" vertex="1">
          <mxGeometry x="720" y="-720" width="80" height="80" as="geometry" />
        </mxCell>
        <mxCell id="Ro30wuysqxpOcJ6ZnLPi-7" value="mri_anteroom" style="whiteSpace=wrap;html=1;aspect=fixed;" parent="1" vertex="1">
          <mxGeometry x="720" y="-400" width="80" height="80" as="geometry" />
        </mxCell>
        <mxCell id="Ro30wuysqxpOcJ6ZnLPi-8" value="mri_scanner" style="whiteSpace=wrap;html=1;aspect=fixed;" parent="1" vertex="1">
          <mxGeometry x="880" y="-400" width="80" height="80" as="geometry" />
        </mxCell>
        <mxCell id="Wa4HmB7pNGT4p0sFPQ5S-1" value="a_ward_1" style="whiteSpace=wrap;html=1;aspect=fixed;" parent="1" vertex="1">
          <mxGeometry x="80" y="800" width="80" height="80" as="geometry" />
        </mxCell>
        <mxCell id="Wa4HmB7pNGT4p0sFPQ5S-2" value="" style="endArrow=classic;startArrow=classic;html=1;rounded=0;exitX=1;exitY=0.5;exitDx=0;exitDy=0;entryX=0;entryY=0.5;entryDx=0;entryDy=0;" parent="1" source="Wa4HmB7pNGT4p0sFPQ5S-1" target="tPwMybB11Bxk-xAltd_m-42" edge="1">
          <mxGeometry width="50" height="50" relative="1" as="geometry">
            <mxPoint x="210" y="740" as="sourcePoint" />
            <mxPoint x="260" y="690" as="targetPoint" />
          </mxGeometry>
        </mxCell>
        <mxCell id="Wa4HmB7pNGT4p0sFPQ5S-3" value="station_a&lt;div&gt;(becky)&lt;/div&gt;" style="whiteSpace=wrap;html=1;aspect=fixed;" parent="1" vertex="1">
          <mxGeometry x="-80" y="800" width="80" height="80" as="geometry" />
        </mxCell>
        <mxCell id="Wa4HmB7pNGT4p0sFPQ5S-4" value="" style="endArrow=classic;startArrow=classic;html=1;rounded=0;exitX=1;exitY=0.5;exitDx=0;exitDy=0;entryX=0;entryY=0.5;entryDx=0;entryDy=0;" parent="1" source="Wa4HmB7pNGT4p0sFPQ5S-3" target="Wa4HmB7pNGT4p0sFPQ5S-1" edge="1">
          <mxGeometry width="50" height="50" relative="1" as="geometry">
            <mxPoint x="160" y="720" as="sourcePoint" />
            <mxPoint x="210" y="670" as="targetPoint" />
          </mxGeometry>
        </mxCell>
        <mxCell id="InT270h7NLE9BvcGHs4i-1" value="outside" style="whiteSpace=wrap;html=1;aspect=fixed;" parent="1" vertex="1">
          <mxGeometry x="400" y="480" width="80" height="80" as="geometry" />
        </mxCell>
        <mxCell id="InT270h7NLE9BvcGHs4i-2" value="" style="endArrow=classic;startArrow=classic;html=1;rounded=0;exitX=0.5;exitY=0;exitDx=0;exitDy=0;entryX=0.5;entryY=1;entryDx=0;entryDy=0;" parent="1" source="InT270h7NLE9BvcGHs4i-1" target="qfG-5sboeh_dWvt4FY1i-1" edge="1">
          <mxGeometry width="50" height="50" relative="1" as="geometry">
            <mxPoint x="520" y="440" as="sourcePoint" />
            <mxPoint x="570" y="390" as="targetPoint" />
          </mxGeometry>
        </mxCell>
        <mxCell id="l9DeKeTZ9b0HpHlxS__q-1" value="room_21&lt;div&gt;(mrs_chen)&lt;/div&gt;" style="whiteSpace=wrap;html=1;aspect=fixed;" parent="1" vertex="1">
          <mxGeometry x="-80" y="640" width="80" height="80" as="geometry" />
        </mxCell>
        <mxCell id="l9DeKeTZ9b0HpHlxS__q-2" value="room_23" style="whiteSpace=wrap;html=1;aspect=fixed;" parent="1" vertex="1">
          <mxGeometry x="80" y="640" width="80" height="80" as="geometry" />
        </mxCell>
        <mxCell id="l9DeKeTZ9b0HpHlxS__q-4" value="" style="endArrow=classic;startArrow=classic;html=1;rounded=0;exitX=0.5;exitY=0;exitDx=0;exitDy=0;entryX=0.5;entryY=1;entryDx=0;entryDy=0;" parent="1" source="Wa4HmB7pNGT4p0sFPQ5S-3" target="l9DeKeTZ9b0HpHlxS__q-1" edge="1">
          <mxGeometry width="50" height="50" relative="1" as="geometry">
            <mxPoint x="10" y="780" as="sourcePoint" />
            <mxPoint x="60" y="730" as="targetPoint" />
          </mxGeometry>
        </mxCell>
        <mxCell id="l9DeKeTZ9b0HpHlxS__q-5" value="" style="endArrow=classic;startArrow=classic;html=1;rounded=0;exitX=0.5;exitY=0;exitDx=0;exitDy=0;entryX=0.5;entryY=1;entryDx=0;entryDy=0;" parent="1" source="Wa4HmB7pNGT4p0sFPQ5S-1" target="l9DeKeTZ9b0HpHlxS__q-2" edge="1">
          <mxGeometry width="50" height="50" relative="1" as="geometry">
            <mxPoint x="210" y="740" as="sourcePoint" />
            <mxPoint x="260" y="690" as="targetPoint" />
          </mxGeometry>
        </mxCell>
        <mxCell id="l9DeKeTZ9b0HpHlxS__q-6" value="room_22&lt;div&gt;(ms_parsons)&lt;/div&gt;" style="whiteSpace=wrap;html=1;aspect=fixed;" parent="1" vertex="1">
          <mxGeometry x="-80" y="960" width="80" height="80" as="geometry" />
        </mxCell>
        <mxCell id="l9DeKeTZ9b0HpHlxS__q-7" value="room_24" style="whiteSpace=wrap;html=1;aspect=fixed;" parent="1" vertex="1">
          <mxGeometry x="80" y="960" width="80" height="80" as="geometry" />
        </mxCell>
        <mxCell id="l9DeKeTZ9b0HpHlxS__q-8" value="" style="endArrow=classic;startArrow=classic;html=1;rounded=0;entryX=0.5;entryY=1;entryDx=0;entryDy=0;exitX=0.5;exitY=0;exitDx=0;exitDy=0;" parent="1" source="l9DeKeTZ9b0HpHlxS__q-7" target="Wa4HmB7pNGT4p0sFPQ5S-1" edge="1">
          <mxGeometry width="50" height="50" relative="1" as="geometry">
            <mxPoint x="80" y="950" as="sourcePoint" />
            <mxPoint x="130" y="900" as="targetPoint" />
          </mxGeometry>
        </mxCell>
        <mxCell id="l9DeKeTZ9b0HpHlxS__q-9" value="" style="endArrow=classic;startArrow=classic;html=1;rounded=0;exitX=0.5;exitY=0;exitDx=0;exitDy=0;entryX=0.5;entryY=1;entryDx=0;entryDy=0;" parent="1" source="l9DeKeTZ9b0HpHlxS__q-6" target="Wa4HmB7pNGT4p0sFPQ5S-3" edge="1">
          <mxGeometry width="50" height="50" relative="1" as="geometry">
            <mxPoint y="940" as="sourcePoint" />
            <mxPoint x="50" y="890" as="targetPoint" />
          </mxGeometry>
        </mxCell>
        <mxCell id="X3zGMK6VJxMwTFyrHBYT-1" value="b_ward_1" style="whiteSpace=wrap;html=1;aspect=fixed;" parent="1" vertex="1">
          <mxGeometry x="880" y="800" width="80" height="80" as="geometry" />
        </mxCell>
        <mxCell id="X3zGMK6VJxMwTFyrHBYT-2" value="station_b&lt;div&gt;(retch)&lt;/div&gt;" style="whiteSpace=wrap;html=1;aspect=fixed;" parent="1" vertex="1">
          <mxGeometry x="1040" y="800" width="80" height="80" as="geometry" />
        </mxCell>
        <mxCell id="RnkapRIIYIxoiKLD8Jqy-4" value="break_room" style="whiteSpace=wrap;html=1;aspect=fixed;" parent="1" vertex="1">
          <mxGeometry x="240" y="640" width="80" height="80" as="geometry" />
        </mxCell>
        <mxCell id="Se65NE5hqtVho5Owk1Go-1" value="room_31&lt;div&gt;&lt;br&gt;&lt;/div&gt;" style="whiteSpace=wrap;html=1;aspect=fixed;" parent="1" vertex="1">
          <mxGeometry x="880" y="640" width="80" height="80" as="geometry" />
        </mxCell>
        <mxCell id="Se65NE5hqtVho5Owk1Go-2" value="room_32&lt;div&gt;(edith)&lt;/div&gt;" style="whiteSpace=wrap;html=1;aspect=fixed;" parent="1" vertex="1">
          <mxGeometry x="880" y="960" width="80" height="80" as="geometry" />
        </mxCell>
        <mxCell id="Se65NE5hqtVho5Owk1Go-3" value="room_33&lt;div&gt;(larry)&lt;/div&gt;" style="whiteSpace=wrap;html=1;aspect=fixed;" parent="1" vertex="1">
          <mxGeometry x="1040" y="640" width="80" height="80" as="geometry" />
        </mxCell>
        <mxCell id="Se65NE5hqtVho5Owk1Go-4" value="room_34" style="whiteSpace=wrap;html=1;aspect=fixed;" parent="1" vertex="1">
          <mxGeometry x="1040" y="960" width="80" height="80" as="geometry" />
        </mxCell>
        <mxCell id="H6gIyjHhuOFso3kUnR7H-1" value="" style="endArrow=classic;html=1;rounded=0;exitX=0.5;exitY=1;exitDx=0;exitDy=0;" parent="1" edge="1">
          <mxGeometry width="50" height="50" relative="1" as="geometry">
            <mxPoint x="279.5" y="-1040" as="sourcePoint" />
            <mxPoint x="279.5" y="-950" as="targetPoint" />
          </mxGeometry>
        </mxCell>
        <mxCell id="H6gIyjHhuOFso3kUnR7H-2" value="dumbwaiter_sb" style="text;html=1;align=center;verticalAlign=middle;resizable=0;points=[];autosize=1;strokeColor=none;fillColor=none;" parent="1" vertex="1">
          <mxGeometry x="230" y="-940" width="100" height="30" as="geometry" />
        </mxCell>
        <mxCell id="N4_f-uzJbNRW8--8sJQ5-1" value="" style="endArrow=classic;startArrow=classic;html=1;rounded=0;exitX=1;exitY=0.5;exitDx=0;exitDy=0;entryX=0;entryY=0.5;entryDx=0;entryDy=0;" parent="1" source="asU1JeA8CYxMuC0H8y0G-6" target="asU1JeA8CYxMuC0H8y0G-12" edge="1">
          <mxGeometry width="50" height="50" relative="1" as="geometry">
            <mxPoint x="310" y="-1170" as="sourcePoint" />
            <mxPoint x="360" y="-1220" as="targetPoint" />
          </mxGeometry>
        </mxCell>
        <mxCell id="N4_f-uzJbNRW8--8sJQ5-2" value="boiler_room" style="whiteSpace=wrap;html=1;aspect=fixed;" parent="1" vertex="1">
          <mxGeometry x="80" y="-1120" width="80" height="80" as="geometry" />
        </mxCell>
        <mxCell id="N4_f-uzJbNRW8--8sJQ5-3" value="" style="endArrow=classic;startArrow=classic;html=1;rounded=0;entryX=0;entryY=0.5;entryDx=0;entryDy=0;exitX=1;exitY=0.5;exitDx=0;exitDy=0;" parent="1" source="N4_f-uzJbNRW8--8sJQ5-2" target="asU1JeA8CYxMuC0H8y0G-6" edge="1">
          <mxGeometry width="50" height="50" relative="1" as="geometry">
            <mxPoint x="120" y="-950" as="sourcePoint" />
            <mxPoint x="170" y="-1000" as="targetPoint" />
          </mxGeometry>
        </mxCell>
        <mxCell id="Jl3BJ8tSFotL6OoS965q-2" value="" style="endArrow=none;dashed=1;html=1;dashPattern=1 3;strokeWidth=2;rounded=0;exitX=0.5;exitY=0;exitDx=0;exitDy=0;" parent="1" source="tPwMybB11Bxk-xAltd_m-19" edge="1">
          <mxGeometry width="50" height="50" relative="1" as="geometry">
            <mxPoint x="300" y="-90" as="sourcePoint" />
            <mxPoint x="280" y="-80" as="targetPoint" />
          </mxGeometry>
        </mxCell>
        <mxCell id="Jl3BJ8tSFotL6OoS965q-3" value="U/D" style="edgeLabel;html=1;align=center;verticalAlign=middle;resizable=0;points=[];" parent="Jl3BJ8tSFotL6OoS965q-2" vertex="1" connectable="0">
          <mxGeometry x="0.2929" y="-2" relative="1" as="geometry">
            <mxPoint as="offset" />
          </mxGeometry>
        </mxCell>
        <mxCell id="Jl3BJ8tSFotL6OoS965q-4" value="To ceiling_01" style="text;html=1;align=center;verticalAlign=middle;resizable=0;points=[];autosize=1;strokeColor=none;fillColor=none;" parent="1" vertex="1">
          <mxGeometry x="235" y="-142" width="90" height="30" as="geometry" />
        </mxCell>
        <mxCell id="Jl3BJ8tSFotL6OoS965q-25" value="ceiling_01" style="whiteSpace=wrap;html=1;aspect=fixed;" parent="1" vertex="1">
          <mxGeometry x="1360" width="80" height="80" as="geometry" />
        </mxCell>
        <mxCell id="Jl3BJ8tSFotL6OoS965q-26" value="ceiling_02" style="whiteSpace=wrap;html=1;aspect=fixed;" parent="1" vertex="1">
          <mxGeometry x="1200" width="80" height="80" as="geometry" />
        </mxCell>
        <mxCell id="Jl3BJ8tSFotL6OoS965q-27" value="ceiling_03" style="whiteSpace=wrap;html=1;aspect=fixed;" parent="1" vertex="1">
          <mxGeometry x="1040" width="80" height="80" as="geometry" />
        </mxCell>
        <mxCell id="Jl3BJ8tSFotL6OoS965q-28" value="ceiling_04" style="whiteSpace=wrap;html=1;aspect=fixed;" parent="1" vertex="1">
          <mxGeometry x="1040" y="160" width="80" height="80" as="geometry" />
        </mxCell>
        <mxCell id="Jl3BJ8tSFotL6OoS965q-29" value="ceiling_05" style="whiteSpace=wrap;html=1;aspect=fixed;" parent="1" vertex="1">
          <mxGeometry x="1040" y="320" width="80" height="80" as="geometry" />
        </mxCell>
        <mxCell id="Jl3BJ8tSFotL6OoS965q-30" value="" style="endArrow=classic;startArrow=classic;html=1;rounded=0;exitX=1;exitY=0.5;exitDx=0;exitDy=0;entryX=0;entryY=0.5;entryDx=0;entryDy=0;" parent="1" source="Jl3BJ8tSFotL6OoS965q-26" target="Jl3BJ8tSFotL6OoS965q-25" edge="1">
          <mxGeometry width="50" height="50" relative="1" as="geometry">
            <mxPoint x="1330" y="-50" as="sourcePoint" />
            <mxPoint x="1380" y="-100" as="targetPoint" />
          </mxGeometry>
        </mxCell>
        <mxCell id="Jl3BJ8tSFotL6OoS965q-31" value="" style="endArrow=classic;startArrow=classic;html=1;rounded=0;exitX=1;exitY=0.5;exitDx=0;exitDy=0;entryX=0;entryY=0.5;entryDx=0;entryDy=0;" parent="1" source="Jl3BJ8tSFotL6OoS965q-27" target="Jl3BJ8tSFotL6OoS965q-26" edge="1">
          <mxGeometry width="50" height="50" relative="1" as="geometry">
            <mxPoint x="1160" y="-20" as="sourcePoint" />
            <mxPoint x="1210" y="-70" as="targetPoint" />
          </mxGeometry>
        </mxCell>
        <mxCell id="Jl3BJ8tSFotL6OoS965q-32" value="" style="endArrow=classic;startArrow=classic;html=1;rounded=0;entryX=0.5;entryY=1;entryDx=0;entryDy=0;exitX=0.5;exitY=0;exitDx=0;exitDy=0;" parent="1" source="Jl3BJ8tSFotL6OoS965q-28" target="Jl3BJ8tSFotL6OoS965q-27" edge="1">
          <mxGeometry width="50" height="50" relative="1" as="geometry">
            <mxPoint x="960" y="150" as="sourcePoint" />
            <mxPoint x="1010" y="100" as="targetPoint" />
          </mxGeometry>
        </mxCell>
        <mxCell id="Jl3BJ8tSFotL6OoS965q-33" value="" style="endArrow=classic;startArrow=classic;html=1;rounded=0;entryX=0.5;entryY=1;entryDx=0;entryDy=0;exitX=0.5;exitY=0;exitDx=0;exitDy=0;" parent="1" source="Jl3BJ8tSFotL6OoS965q-29" target="Jl3BJ8tSFotL6OoS965q-28" edge="1">
          <mxGeometry width="50" height="50" relative="1" as="geometry">
            <mxPoint x="1000" y="330" as="sourcePoint" />
            <mxPoint x="1050" y="280" as="targetPoint" />
          </mxGeometry>
        </mxCell>
        <mxCell id="Jl3BJ8tSFotL6OoS965q-34" value="" style="endArrow=none;dashed=1;html=1;dashPattern=1 3;strokeWidth=2;rounded=0;exitX=0.5;exitY=1;exitDx=0;exitDy=0;" parent="1" source="Jl3BJ8tSFotL6OoS965q-25" edge="1">
          <mxGeometry width="50" height="50" relative="1" as="geometry">
            <mxPoint x="1510" y="150" as="sourcePoint" />
            <mxPoint x="1400" y="150" as="targetPoint" />
          </mxGeometry>
        </mxCell>
        <mxCell id="Jl3BJ8tSFotL6OoS965q-35" value="U/D" style="edgeLabel;html=1;align=center;verticalAlign=middle;resizable=0;points=[];" parent="Jl3BJ8tSFotL6OoS965q-34" vertex="1" connectable="0">
          <mxGeometry x="-0.1102" y="2" relative="1" as="geometry">
            <mxPoint as="offset" />
          </mxGeometry>
        </mxCell>
        <mxCell id="Jl3BJ8tSFotL6OoS965q-36" value="hallway_m2" style="text;html=1;align=center;verticalAlign=middle;resizable=0;points=[];autosize=1;strokeColor=none;fillColor=none;" parent="1" vertex="1">
          <mxGeometry x="1355" y="168" width="90" height="30" as="geometry" />
        </mxCell>
        <mxCell id="Jl3BJ8tSFotL6OoS965q-37" value="" style="endArrow=none;dashed=1;html=1;dashPattern=1 3;strokeWidth=2;rounded=0;entryX=0;entryY=0.5;entryDx=0;entryDy=0;" parent="1" target="Jl3BJ8tSFotL6OoS965q-29" edge="1">
          <mxGeometry width="50" height="50" relative="1" as="geometry">
            <mxPoint x="960" y="360" as="sourcePoint" />
            <mxPoint x="1030" y="340" as="targetPoint" />
          </mxGeometry>
        </mxCell>
        <mxCell id="Jl3BJ8tSFotL6OoS965q-38" value="U/D" style="edgeLabel;html=1;align=center;verticalAlign=middle;resizable=0;points=[];" parent="Jl3BJ8tSFotL6OoS965q-37" vertex="1" connectable="0">
          <mxGeometry x="-0.2036" y="-4" relative="1" as="geometry">
            <mxPoint as="offset" />
          </mxGeometry>
        </mxCell>
        <mxCell id="Jl3BJ8tSFotL6OoS965q-39" value="northrup_office" style="text;html=1;align=center;verticalAlign=middle;resizable=0;points=[];autosize=1;strokeColor=none;fillColor=none;" parent="1" vertex="1">
          <mxGeometry x="840" y="338" width="100" height="30" as="geometry" />
        </mxCell>
        <mxCell id="bXn8dek6GAgBmN7YtIxG-1" value="" style="endArrow=classic;startArrow=classic;html=1;rounded=0;entryX=0.5;entryY=1;entryDx=0;entryDy=0;exitX=0.5;exitY=0;exitDx=0;exitDy=0;" parent="1" source="qfG-5sboeh_dWvt4FY1i-17" target="qfG-5sboeh_dWvt4FY1i-18" edge="1">
          <mxGeometry width="50" height="50" relative="1" as="geometry">
            <mxPoint x="620" as="sourcePoint" />
            <mxPoint x="670" y="-50" as="targetPoint" />
          </mxGeometry>
        </mxCell>
        <mxCell id="TogBh1jsZu8j-MQdMGhb-1" value="" style="endArrow=classic;startArrow=classic;html=1;rounded=0;exitX=0.5;exitY=0;exitDx=0;exitDy=0;entryX=0.5;entryY=1;entryDx=0;entryDy=0;" parent="1" source="tPwMybB11Bxk-xAltd_m-4" target="Ro30wuysqxpOcJ6ZnLPi-5" edge="1">
          <mxGeometry width="50" height="50" relative="1" as="geometry">
            <mxPoint x="810" y="-580" as="sourcePoint" />
            <mxPoint x="860" y="-630" as="targetPoint" />
          </mxGeometry>
        </mxCell>
        <mxCell id="TogBh1jsZu8j-MQdMGhb-2" value="" style="endArrow=classic;startArrow=classic;html=1;rounded=0;exitX=1;exitY=0.5;exitDx=0;exitDy=0;entryX=0;entryY=0.5;entryDx=0;entryDy=0;" parent="1" source="Ro30wuysqxpOcJ6ZnLPi-7" target="Ro30wuysqxpOcJ6ZnLPi-8" edge="1">
          <mxGeometry width="50" height="50" relative="1" as="geometry">
            <mxPoint x="800" y="-230" as="sourcePoint" />
            <mxPoint x="850" y="-280" as="targetPoint" />
          </mxGeometry>
        </mxCell>
        <mxCell id="TogBh1jsZu8j-MQdMGhb-3" value="" style="endArrow=classic;startArrow=classic;html=1;rounded=0;entryX=0.5;entryY=1;entryDx=0;entryDy=0;exitX=0.5;exitY=0;exitDx=0;exitDy=0;" parent="1" source="Ro30wuysqxpOcJ6ZnLPi-7" target="tPwMybB11Bxk-xAltd_m-4" edge="1">
          <mxGeometry width="50" height="50" relative="1" as="geometry">
            <mxPoint x="680" y="-400" as="sourcePoint" />
            <mxPoint x="730" y="-450" as="targetPoint" />
          </mxGeometry>
        </mxCell>
        <mxCell id="TogBh1jsZu8j-MQdMGhb-4" value="" style="endArrow=classic;startArrow=classic;html=1;rounded=0;exitX=0.5;exitY=0;exitDx=0;exitDy=0;entryX=0.5;entryY=1;entryDx=0;entryDy=0;" parent="1" source="tPwMybB11Bxk-xAltd_m-42" target="RnkapRIIYIxoiKLD8Jqy-4" edge="1">
          <mxGeometry width="50" height="50" relative="1" as="geometry">
            <mxPoint x="320" y="780" as="sourcePoint" />
            <mxPoint x="370" y="730" as="targetPoint" />
          </mxGeometry>
        </mxCell>
        <mxCell id="TogBh1jsZu8j-MQdMGhb-5" value="" style="endArrow=classic;startArrow=classic;html=1;rounded=0;entryX=0.5;entryY=1;entryDx=0;entryDy=0;exitX=0.5;exitY=0;exitDx=0;exitDy=0;" parent="1" source="qfG-5sboeh_dWvt4FY1i-1" target="qfG-5sboeh_dWvt4FY1i-15" edge="1">
          <mxGeometry width="50" height="50" relative="1" as="geometry">
            <mxPoint x="380" y="220" as="sourcePoint" />
            <mxPoint x="430" y="170" as="targetPoint" />
          </mxGeometry>
        </mxCell>
        <mxCell id="TogBh1jsZu8j-MQdMGhb-6" value="" style="endArrow=classic;startArrow=classic;html=1;rounded=0;exitX=1;exitY=0.5;exitDx=0;exitDy=0;entryX=0;entryY=0.5;entryDx=0;entryDy=0;" parent="1" source="qfG-5sboeh_dWvt4FY1i-8" target="qfG-5sboeh_dWvt4FY1i-1" edge="1">
          <mxGeometry width="50" height="50" relative="1" as="geometry">
            <mxPoint x="340" y="290" as="sourcePoint" />
            <mxPoint x="390" y="240" as="targetPoint" />
          </mxGeometry>
        </mxCell>
        <mxCell id="AqvD5pvh6UB8vr0mb3pu-1" value="" style="endArrow=classic;startArrow=classic;html=1;rounded=0;exitX=0.5;exitY=0;exitDx=0;exitDy=0;entryX=0.5;entryY=1;entryDx=0;entryDy=0;" parent="1" source="X3zGMK6VJxMwTFyrHBYT-1" target="Se65NE5hqtVho5Owk1Go-1" edge="1">
          <mxGeometry width="50" height="50" relative="1" as="geometry">
            <mxPoint x="1180" y="760" as="sourcePoint" />
            <mxPoint x="1230" y="710" as="targetPoint" />
          </mxGeometry>
        </mxCell>
        <mxCell id="AqvD5pvh6UB8vr0mb3pu-2" value="" style="endArrow=classic;startArrow=classic;html=1;rounded=0;exitX=0.5;exitY=0;exitDx=0;exitDy=0;entryX=0.5;entryY=1;entryDx=0;entryDy=0;" parent="1" source="Se65NE5hqtVho5Owk1Go-2" target="X3zGMK6VJxMwTFyrHBYT-1" edge="1">
          <mxGeometry width="50" height="50" relative="1" as="geometry">
            <mxPoint x="1230" y="850" as="sourcePoint" />
            <mxPoint x="1280" y="800" as="targetPoint" />
          </mxGeometry>
        </mxCell>
        <mxCell id="AqvD5pvh6UB8vr0mb3pu-3" value="" style="endArrow=classic;startArrow=classic;html=1;rounded=0;exitX=1;exitY=0.5;exitDx=0;exitDy=0;entryX=0;entryY=0.5;entryDx=0;entryDy=0;" parent="1" source="X3zGMK6VJxMwTFyrHBYT-1" target="X3zGMK6VJxMwTFyrHBYT-2" edge="1">
          <mxGeometry width="50" height="50" relative="1" as="geometry">
            <mxPoint x="990" y="800" as="sourcePoint" />
            <mxPoint x="1040" y="750" as="targetPoint" />
          </mxGeometry>
        </mxCell>
        <mxCell id="AqvD5pvh6UB8vr0mb3pu-4" value="" style="endArrow=classic;startArrow=classic;html=1;rounded=0;entryX=0;entryY=0.5;entryDx=0;entryDy=0;exitX=1;exitY=0.5;exitDx=0;exitDy=0;" parent="1" source="Ro30wuysqxpOcJ6ZnLPi-1" target="X3zGMK6VJxMwTFyrHBYT-1" edge="1">
          <mxGeometry width="50" height="50" relative="1" as="geometry">
            <mxPoint x="800" y="950" as="sourcePoint" />
            <mxPoint x="850" y="900" as="targetPoint" />
          </mxGeometry>
        </mxCell>
        <mxCell id="AqvD5pvh6UB8vr0mb3pu-5" value="" style="endArrow=classic;startArrow=classic;html=1;rounded=0;exitX=0.5;exitY=0;exitDx=0;exitDy=0;entryX=0.5;entryY=1;entryDx=0;entryDy=0;" parent="1" source="X3zGMK6VJxMwTFyrHBYT-2" target="Se65NE5hqtVho5Owk1Go-3" edge="1">
          <mxGeometry width="50" height="50" relative="1" as="geometry">
            <mxPoint x="1160" y="760" as="sourcePoint" />
            <mxPoint x="1210" y="710" as="targetPoint" />
          </mxGeometry>
        </mxCell>
        <mxCell id="AqvD5pvh6UB8vr0mb3pu-6" value="" style="endArrow=classic;startArrow=classic;html=1;rounded=0;exitX=0.5;exitY=0;exitDx=0;exitDy=0;entryX=0.5;entryY=1;entryDx=0;entryDy=0;" parent="1" source="Se65NE5hqtVho5Owk1Go-4" target="X3zGMK6VJxMwTFyrHBYT-2" edge="1">
          <mxGeometry width="50" height="50" relative="1" as="geometry">
            <mxPoint x="1290" y="900" as="sourcePoint" />
            <mxPoint x="1340" y="850" as="targetPoint" />
          </mxGeometry>
        </mxCell>
        <mxCell id="RB5y-soEaUY5HVNCiiBU-1" value="" style="endArrow=classic;startArrow=classic;html=1;rounded=0;entryX=0.5;entryY=1;entryDx=0;entryDy=0;exitX=0.5;exitY=0;exitDx=0;exitDy=0;" parent="1" source="asU1JeA8CYxMuC0H8y0G-11" target="tPwMybB11Bxk-xAltd_m-12" edge="1">
          <mxGeometry width="50" height="50" relative="1" as="geometry">
            <mxPoint x="30" y="-420" as="sourcePoint" />
            <mxPoint x="80" y="-470" as="targetPoint" />
          </mxGeometry>
        </mxCell>
      </root>
    </mxGraphModel>
  </diagram>
</mxfile>
